<?xml version="1.0" encoding="UTF-8" standalone="no"?>
<svg
   xmlns:dc="http://purl.org/dc/elements/1.1/"
   xmlns:cc="http://creativecommons.org/ns#"
   xmlns:rdf="http://www.w3.org/1999/02/22-rdf-syntax-ns#"
   xmlns:svg="http://www.w3.org/2000/svg"
   xmlns="http://www.w3.org/2000/svg"
   xmlns:sodipodi="http://sodipodi.sourceforge.net/DTD/sodipodi-0.dtd"
   xmlns:inkscape="http://www.inkscape.org/namespaces/inkscape"
   inkscape:version="1.0beta2 (2b71d25, 2019-12-03)"
   sodipodi:docname="yourbase.svg"
   id="svg24"
   version="1.1"
   viewBox="0 0 583 583"
   height="583"
   width="583">
  <metadata
     id="metadata30">
    <rdf:RDF>
      <cc:Work
         rdf:about="">
        <dc:format>image/svg+xml</dc:format>
        <dc:type
           rdf:resource="http://purl.org/dc/dcmitype/StillImage" />
        <dc:title>Logo Mark - On White1x</dc:title>
      </cc:Work>
    </rdf:RDF>
  </metadata>
  <defs
     id="defs28" />
  <sodipodi:namedview
     fit-margin-bottom="0"
     fit-margin-right="0"
     fit-margin-left="0"
     fit-margin-top="0"
     lock-margins="false"
     inkscape:current-layer="Logo-Mark---On-White"
     inkscape:window-maximized="0"
     inkscape:window-y="23"
     inkscape:window-x="0"
     inkscape:cy="291"
     inkscape:cx="292"
     inkscape:zoom="0.672"
     showgrid="false"
     id="namedview26"
     inkscape:window-height="1155"
     inkscape:window-width="1920"
     inkscape:pageshadow="2"
     inkscape:pageopacity="0"
     guidetolerance="10"
     gridtolerance="10"
     objecttolerance="10"
     borderopacity="1"
     inkscape:document-rotation="0"
     bordercolor="#666666"
     pagecolor="#ffffff" />
  <!-- Generator: Sketch 52.6 (67491) - http://www.bohemiancoding.com/sketch -->
  <title
     id="title10">Logo Mark - On White1x</title>
  <desc
     id="desc12">Created with Sketch.</desc>
  <g
     transform="translate(-308,-209)"
     fill-rule="evenodd"
     fill="none"
     stroke-width="1"
     stroke="none"
     id="Logo-Mark---On-White">
    <g
       transform="translate(308,209)"
       id="Group-2">
      <path
         inkscape:connector-curvature="0"
         fill="#4F90EC"
         id="Mask"
         d="m 156,497.86708 c 32.68424,-51.11604 57.19742,-89.45306 73.53955,-115.01108 26.54851,-41.52015 66.37127,-103.80038 119.46829,-186.84068 3.19089,-4.99033 9.92544,-6.51292 15.04205,-3.40079 1.41298,0.85943 2.60567,2.02269 3.48685,3.40079 57.47209,89.88263 100.57616,157.29459 129.3122,202.23591 7.61054,12.43211 6.21497,21.81773 -0.44513,32.02926 C 452.08089,495.886 377.15785,539 292.19524,539 241.84449,539 195.01966,523.85831 156,497.86708 Z" />
      <path
         inkscape:connector-curvature="0"
         fill="#204A85"
         id="path17"
         d="m 142.70983,275.03153 c 3.21078,-5.00646 9.98734,-6.53397 15.13586,-3.41178 1.42179,0.8622 2.62192,2.02922 3.50859,3.41178 L 329,536.43568 C 317.31111,538.1254 305.35845,539 293.20153,539 200.42731,539 119.54945,488.06478 77.006177,412.63301 70.739449,400.9843 67.955578,393.02476 75.756343,379.42978 90.634895,356.23017 112.95272,321.43075 142.70983,275.03153 Z" />
      <path
         inkscape:connector-curvature="0"
         fill="#09297B"
         id="Combined-Shape"
         d="M 230.07855,383 329,536.44663 C 317.3005,538.12913 305.337,539 293.16904,539 242.45829,539 195.29865,523.87426 156,497.91041 Z" />
      <path
         inkscape:connector-curvature="0"
         fill="#E53945"
         id="Rectangle"
         d="m 435.24261,140.48116 -72.13676,24.08231 c -4.41412,1.47362 -9.18888,-0.90471 -10.66473,-5.31215 -0.28792,-0.85984 -0.43478,-1.7605 -0.4349,-2.66714 L 352,108.4157 c -6e-4,-4.64726 3.77197,-8.4151 8.42628,-8.4157 0.9088,-1.17e-4 1.81163,0.14655 2.67353,0.4343 l 72.14298,24.08617 c 4.41408,1.47372 6.79591,6.24131 5.31996,10.64871 -0.83943,2.50668 -2.80965,4.47387 -5.32014,5.31198 z" />
      <path
         inkscape:connector-curvature="0"
         fill-rule="nonzero"
         fill="#09297B"
         id="Oval"
         d="M 291.5,583 C 130.50899,583 0,452.491 0,291.5 0,130.50899 130.50899,0 291.5,0 452.491,0 583,130.50899 583,291.5 583,452.491 452.491,583 291.5,583 Z m 0,-20.50754 C 441.165,562.49246 562.49246,441.165 562.49246,291.5 562.49246,141.835 441.165,20.507538 291.5,20.507538 141.835,20.507538 20.507538,141.835 20.507538,291.5 20.507538,441.165 141.835,562.49246 291.5,562.49246 Z" />
    </g>
  </g>
</svg>
