<?xml version="1.0" standalone="no"?>
<!DOCTYPE svg PUBLIC "-//W3C//DTD SVG 20010904//EN"
 "http://www.w3.org/TR/2001/REC-SVG-20010904/DTD/svg10.dtd">
<svg version="1.0" xmlns="http://www.w3.org/2000/svg"
 width="334.000000pt" height="334.000000pt" viewBox="0 0 334.000000 334.000000"
 preserveAspectRatio="xMidYMid meet">
<metadata>
Created by potrace 1.14, written by Peter Selinger 2001-2017
</metadata>
<g transform="translate(0.000000,334.000000) scale(0.100000,-0.100000)"
fill="#000000" stroke="none">
<path d="M0 1670 l0 -1670 1670 0 1670 0 0 1670 0 1670 -1670 0 -1670 0 0
-1670z m840 1215 c-28 -30 -40 -32 -40 -7 0 25 9 32 38 32 l25 0 -23 -25z m40
-40 c-68 -68 -80 -76 -80 -48 0 28 90 113 119 113 23 0 19 -6 -39 -65z m40
-40 c-58 -58 -108 -105 -112 -105 -27 0 3 46 79 122 64 64 94 88 113 88 21 0
11 -14 -80 -105z m180 97 c0 -14 -286 -293 -293 -286 -18 19 2 46 120 166 89
90 134 128 150 128 13 0 23 -3 23 -8z m50 -15 c0 -16 -50 -72 -168 -190 -92
-92 -171 -165 -175 -161 -4 4 -7 14 -7 23 0 15 327 351 342 351 5 0 8 -10 8
-23z m1197 -139 c132 -132 163 -168 163 -190 0 -16 -3 -28 -7 -28 -4 0 -83 75
-175 167 -118 118 -168 174 -168 190 0 13 6 23 12 23 7 0 86 -73 175 -162z
m45 45 c103 -102 118 -122 118 -150 0 -18 -3 -33 -7 -33 -10 0 -293 283 -293
292 0 5 15 8 32 8 28 0 49 -16 150 -117z m41 39 c69 -70 78 -83 75 -111 l-3
-32 -110 111 -110 110 35 0 c31 0 46 -10 113 -78z m39 41 c26 -25 38 -46 38
-65 0 -15 -4 -28 -8 -28 -4 0 -37 29 -72 65 l-64 65 34 0 c26 0 43 -9 72 -37z
m38 12 c0 -14 -4 -25 -8 -25 -5 0 -19 11 -32 25 l-23 25 31 0 c27 0 32 -4 32
-25z m0 -407 c0 -16 -3 -28 -7 -28 -4 0 -83 75 -175 167 -153 153 -168 171
-168 203 0 34 2 33 175 -140 142 -142 175 -180 175 -202z m-1360 330 c0 -16
-51 -73 -167 -190 -92 -93 -171 -168 -175 -168 -5 0 -8 10 -8 22 0 15 53 75
167 190 92 92 171 168 175 168 4 0 8 -10 8 -22z m1360 -410 c0 -16 -3 -28 -7
-28 -4 0 -82 73 -173 162 l-165 163 173 -175 c138 -141 172 -181 172 -203 0
-15 -3 -27 -7 -27 -4 0 -82 73 -173 162 l-165 163 172 -175 172 -175 -1 -72
c0 -40 -3 -73 -6 -73 -4 0 -81 73 -172 162 l-165 163 173 -175 172 -175 0
-188 0 -187 -260 0 -260 0 0 170 0 170 85 0 c84 0 85 0 85 25 0 30 6 31 34 8
12 -10 9 -4 -6 13 -19 20 -28 41 -28 64 l0 34 78 -74 77 -75 -77 80 c-67 69
-78 85 -78 115 l0 35 118 -115 117 -115 -117 120 c-105 107 -118 124 -118 155
0 35 1 34 157 -120 l158 -155 -160 166 -160 166 -157 2 -157 1 -50 -52 c-54
-58 -61 -81 -8 -30 41 40 50 40 45 2 -3 -22 -1 -30 10 -30 28 0 52 -32 52 -69
l0 -35 -48 47 c-26 26 -56 47 -67 47 -15 0 -2 -17 48 -68 56 -57 67 -73 67
-102 l0 -34 -108 105 -108 104 75 77 c41 43 73 80 70 82 -3 3 -43 -33 -89 -79
l-85 -85 123 -123 c109 -109 122 -126 122 -157 0 -34 -1 -34 -158 123 -97 97
-165 157 -177 157 -14 0 34 -54 158 -178 161 -162 177 -180 177 -212 0 -34 -4
-31 -215 180 -118 118 -211 216 -205 218 5 2 10 13 10 25 0 15 54 76 170 192
94 93 170 177 170 185 0 8 -75 -59 -166 -150 -96 -96 -168 -160 -171 -152 -3
9 -45 12 -162 12 l-157 0 -162 -162 c-88 -89 -159 -165 -156 -167 3 -3 69 59
147 137 78 78 146 142 150 142 4 0 7 -10 7 -22 0 -16 -38 -60 -117 -140 -64
-65 -114 -120 -110 -124 4 -4 56 42 117 101 93 92 110 105 110 85 0 -17 -24
-48 -77 -102 -42 -43 -74 -80 -70 -84 3 -4 38 24 77 61 61 60 70 65 70 45 0
-14 -15 -40 -37 -62 -43 -44 -39 -60 6 -23 27 24 31 25 31 8 0 -10 38 -56 85
-103 74 -74 85 -89 85 -120 l0 -35 -87 85 -88 85 88 -90 c75 -78 87 -95 87
-125 l0 -35 -87 85 -88 85 88 -90 c48 -50 87 -94 87 -98 0 -4 -12 -7 -27 -7
-20 0 -45 16 -88 58 l-60 57 55 -57 54 -58 -40 0 c-22 0 -46 6 -53 13 -10 8
-12 8 -7 0 5 -9 -38 -12 -173 -11 l-179 0 0 182 0 181 169 170 c93 94 169 175
169 180 0 5 -73 -63 -163 -153 -90 -89 -166 -160 -170 -156 -19 19 6 50 163
209 94 94 170 175 170 180 0 5 -73 -63 -163 -153 -90 -89 -166 -160 -170 -156
-19 20 6 53 163 209 93 93 170 177 170 185 0 8 -73 -58 -163 -148 -89 -89
-166 -162 -170 -162 -30 0 16 59 163 205 93 93 170 177 170 185 0 8 -73 -58
-163 -148 -89 -89 -166 -162 -170 -162 -30 0 17 59 166 205 l172 170 194 -5
c191 -5 193 -5 172 -24 -12 -11 -21 -26 -21 -35 0 -10 13 -2 38 22 34 33 82
50 82 29 0 -4 -27 -34 -60 -67 -33 -33 -60 -64 -60 -69 0 -6 35 24 78 67 50
50 85 77 100 77 12 0 22 -3 22 -8 0 -4 -45 -52 -100 -107 -55 -55 -100 -104
-100 -110 0 -5 53 43 118 108 97 97 122 117 147 117 28 0 19 -11 -120 -150
-82 -82 -146 -152 -143 -155 3 -3 78 64 166 150 l160 155 171 0 c156 0 171 2
171 17 0 11 69 -51 175 -157 142 -142 175 -180 175 -202z m-620 -628 c0 -34
-4 -31 -230 195 -212 212 -230 233 -230 265 0 34 4 31 230 -195 212 -212 230
-233 230 -265z m0 -110 c0 -34 -4 -31 -230 195 -212 212 -230 233 -230 265 0
34 4 31 230 -195 212 -212 230 -233 230 -265z m-571 330 c0 -38 -3 -70 -7 -70
-4 0 -39 32 -77 70 l-69 70 76 0 77 0 0 -70z m348 -172 c199 -199 223 -226
223 -255 0 -18 -3 -33 -7 -33 -4 0 -108 100 -230 222 -199 199 -223 226 -223
255 0 18 3 33 7 33 4 0 108 -100 230 -222z m223 -370 c0 -16 -3 -28 -7 -28 -4
0 -108 100 -230 222 -206 206 -223 226 -223 258 0 34 4 31 230 -195 189 -189
230 -235 230 -257z m-223 150 c199 -199 223 -226 223 -255 0 -18 -3 -33 -7
-33 -4 0 -108 100 -230 222 -199 199 -223 226 -223 255 0 18 3 33 7 33 4 0
108 -100 230 -222z m223 -370 c0 -16 -3 -28 -7 -28 -4 0 -108 100 -230 222
-206 206 -223 226 -223 258 0 34 4 31 230 -195 189 -189 230 -235 230 -257z
m0 -110 c0 -16 -3 -28 -7 -28 -4 0 -108 100 -230 222 -206 206 -223 226 -223
258 0 34 4 31 230 -195 189 -189 230 -235 230 -257z m-223 150 c183 -183 223
-228 223 -250 l0 -28 110 0 110 0 0 110 0 110 230 0 230 0 0 -340 0 -340 -602
0 -602 0 35 38 34 37 -40 -38 c-36 -32 -47 -37 -90 -37 l-50 0 90 92 90 93
-95 -92 -95 -93 -248 0 -247 0 0 340 0 340 230 0 230 0 0 -110 c0 -103 1 -110
20 -110 26 0 25 -8 -2 -39 -14 -16 -8 -13 13 7 28 25 43 32 77 32 23 0 42 -3
42 -7 0 -4 -35 -44 -77 -88 l-78 -80 90 88 c59 56 98 87 113 87 18 0 22 6 22
30 0 17 4 30 8 30 5 0 21 -13 37 -30 16 -16 38 -30 49 -30 16 0 9 12 -37 58
-41 42 -57 65 -57 85 0 15 3 27 8 27 4 0 45 -38 92 -85 50 -50 93 -85 105 -85
14 0 -11 31 -93 113 -88 88 -112 118 -112 140 0 15 3 27 8 27 4 0 70 -63 147
-140 87 -87 147 -140 160 -140 14 0 -29 49 -148 168 -135 135 -167 173 -167
195 0 15 3 27 8 27 4 0 95 -88 202 -195 107 -107 202 -195 210 -195 8 0 -83
98 -203 218 -193 193 -217 221 -217 250 0 17 3 32 7 32 4 0 108 -100 230 -222z"/>
<path d="M1650 2445 c-91 -91 -158 -165 -150 -165 20 0 324 304 319 319 -2 6
-78 -63 -169 -154z"/>
<path d="M2295 2400 c71 -71 132 -130 135 -130 2 0 -54 59 -125 130 -71 72
-132 130 -135 130 -2 0 54 -58 125 -130z"/>
<path d="M1695 2400 c-66 -66 -115 -120 -110 -120 13 0 241 228 234 234 -3 3
-59 -49 -124 -114z"/>
<path d="M1557 963 c-4 -3 -7 -11 -7 -17 0 -6 5 -5 12 2 6 6 9 14 7 17 -3 3
-9 2 -12 -2z"/>
<path d="M1667 963 c-4 -3 -7 -11 -7 -17 0 -6 5 -5 12 2 6 6 9 14 7 17 -3 3
-9 2 -12 -2z"/>
<path d="M1777 963 c-4 -3 -7 -11 -7 -17 0 -6 5 -5 12 2 6 6 9 14 7 17 -3 3
-9 2 -12 -2z"/>
<path d="M1315 818 l-110 -113 113 110 c104 102 117 115 109 115 -1 0 -52 -51
-112 -112z"/>
<path d="M1605 900 c-3 -5 -2 -10 4 -10 5 0 13 5 16 10 3 6 2 10 -4 10 -5 0
-13 -4 -16 -10z"/>
<path d="M1715 900 c-3 -5 -2 -10 4 -10 5 0 13 5 16 10 3 6 2 10 -4 10 -5 0
-13 -4 -16 -10z"/>
<path d="M1825 900 c-3 -5 -2 -10 4 -10 5 0 13 5 16 10 3 6 2 10 -4 10 -5 0
-13 -4 -16 -10z"/>
<path d="M1557 853 c-4 -3 -7 -11 -7 -17 0 -6 5 -5 12 2 6 6 9 14 7 17 -3 3
-9 2 -12 -2z"/>
<path d="M1667 853 c-4 -3 -7 -11 -7 -17 0 -6 5 -5 12 2 6 6 9 14 7 17 -3 3
-9 2 -12 -2z"/>
<path d="M1770 839 c0 -5 5 -7 10 -4 6 3 10 8 10 11 0 2 -4 4 -10 4 -5 0 -10
-5 -10 -11z"/>
<path d="M1315 708 l-110 -113 113 110 c61 60 112 111 112 112 0 8 -13 -5
-115 -109z"/>
<path d="M1605 790 c-3 -5 -2 -10 4 -10 5 0 13 5 16 10 3 6 2 10 -4 10 -5 0
-13 -4 -16 -10z"/>
<path d="M1715 790 c-3 -5 -2 -10 4 -10 5 0 13 5 16 10 3 6 2 10 -4 10 -5 0
-13 -4 -16 -10z"/>
<path d="M1825 790 c-3 -5 -2 -10 4 -10 5 0 13 5 16 10 3 6 2 10 -4 10 -5 0
-13 -4 -16 -10z"/>
<path d="M1557 743 c-4 -3 -7 -11 -7 -17 0 -6 5 -5 12 2 6 6 9 14 7 17 -3 3
-9 2 -12 -2z"/>
<path d="M1667 743 c-4 -3 -7 -11 -7 -17 0 -6 5 -5 12 2 6 6 9 14 7 17 -3 3
-9 2 -12 -2z"/>
<path d="M1777 743 c-4 -3 -7 -11 -7 -17 0 -6 5 -5 12 2 6 6 9 14 7 17 -3 3
-9 2 -12 -2z"/>
<path d="M1605 680 c-3 -5 -2 -10 4 -10 5 0 13 5 16 10 3 6 2 10 -4 10 -5 0
-13 -4 -16 -10z"/>
<path d="M1715 680 c-3 -5 -2 -10 4 -10 5 0 13 5 16 10 3 6 2 10 -4 10 -5 0
-13 -4 -16 -10z"/>
<path d="M1825 680 c-3 -5 -2 -10 4 -10 5 0 13 5 16 10 3 6 2 10 -4 10 -5 0
-13 -4 -16 -10z"/>
<path d="M1557 633 c-4 -3 -7 -11 -7 -17 0 -6 5 -5 12 2 6 6 9 14 7 17 -3 3
-9 2 -12 -2z"/>
<path d="M1667 633 c-4 -3 -7 -11 -7 -17 0 -6 5 -5 12 2 6 6 9 14 7 17 -3 3
-9 2 -12 -2z"/>
<path d="M1770 619 c0 -5 5 -7 10 -4 6 3 10 8 10 11 0 2 -4 4 -10 4 -5 0 -10
-5 -10 -11z"/>
<path d="M1605 570 c-3 -5 -2 -10 4 -10 5 0 13 5 16 10 3 6 2 10 -4 10 -5 0
-13 -4 -16 -10z"/>
<path d="M1715 570 c-3 -5 -2 -10 4 -10 5 0 13 5 16 10 3 6 2 10 -4 10 -5 0
-13 -4 -16 -10z"/>
<path d="M1825 570 c-3 -5 -2 -10 4 -10 5 0 13 5 16 10 3 6 2 10 -4 10 -5 0
-13 -4 -16 -10z"/>
</g>
</svg>
