<?xml version="1.0" standalone="no"?>
<!DOCTYPE svg PUBLIC "-//W3C//DTD SVG 20010904//EN"
 "http://www.w3.org/TR/2001/REC-SVG-20010904/DTD/svg10.dtd">
<svg version="1.0" xmlns="http://www.w3.org/2000/svg"
 width="1024.000000pt" height="1024.000000pt" viewBox="0 0 1024.000000 1024.000000"
 preserveAspectRatio="xMidYMid meet">
<metadata>
Created by potrace 1.14, written by Peter Selinger 2001-2017
</metadata>
<g transform="translate(0.000000,1024.000000) scale(0.100000,-0.100000)"
fill="#000000" stroke="none">
<path d="M8410 10055 l0 -185 -180 0 -180 0 0 -180 0 -180 180 0 180 0 0 180
0 180 185 0 185 0 0 185 0 185 -185 0 -185 0 0 -185z"/>
<path d="M2560 9690 l0 -180 -185 0 -185 0 0 -365 0 -365 -180 0 -180 0 0
-365 0 -365 -185 0 -185 0 0 -735 0 -735 -180 0 -180 0 0 185 0 185 -185 0
-185 0 0 180 0 180 -365 0 -365 0 0 -1825 0 -1825 185 0 185 0 0 -365 0 -365
180 0 180 0 0 -185 0 -185 185 0 185 0 0 -185 0 -185 365 0 365 0 0 -365 0
-365 180 0 180 0 0 -180 0 -180 185 0 185 0 0 -185 0 -185 185 0 185 0 0 -180
0 -180 365 0 365 0 0 -185 0 -185 1645 0 1645 0 0 185 0 185 365 0 365 0 0
180 0 180 185 0 185 0 0 185 0 185 180 0 180 0 0 180 0 180 185 0 185 0 0 365
0 365 180 0 180 0 0 550 0 550 365 0 365 0 0 185 0 185 185 0 185 0 0 2010 0
2010 -185 0 -185 0 0 -185 0 -185 -180 0 -180 0 0 -180 0 -180 -365 0 -365 0
0 365 0 365 -185 0 -185 0 0 365 0 365 -180 0 -180 0 0 365 0 365 -185 0 -185
0 0 185 0 185 -185 0 -185 0 0 180 0 180 -180 0 -180 0 0 -180 0 -180 -185 0
-185 0 0 -185 0 -185 -1095 0 -1095 0 0 -180 0 -180 -365 0 -365 0 0 180 0
180 -185 0 -185 0 0 185 0 185 -180 0 -180 0 0 180 0 180 -185 0 -185 0 0
-180z"/>
<path d="M9140 9690 l0 -180 -180 0 -180 0 0 -185 0 -185 180 0 180 0 0 185 0
185 185 0 185 0 0 180 0 180 -185 0 -185 0 0 -180z"/>
<path d="M9140 8595 l0 -185 365 0 365 0 0 185 0 185 -365 0 -365 0 0 -185z"/>
</g>
</svg>
