<?xml version="1.0" encoding="utf-8"?>
<!-- Generator: Adobe Illustrator 21.1.0, SVG Export Plug-In . SVG Version: 6.00 Build 0)  -->
<svg version="1.1" id="Icons" xmlns="http://www.w3.org/2000/svg" xmlns:xlink="http://www.w3.org/1999/xlink" x="0px" y="0px"
	 viewBox="0 0 48 48" style="enable-background:new 0 0 48 48;" xml:space="preserve">
<style type="text/css">
	.st0{fill:#FFE500;}
	.st1{fill:#EBCB00;}
	.st2{fill:#FFF48C;}
	.st3{opacity:0.15;fill:#45413C;}
	.st4{fill:none;stroke:#45413C;stroke-linecap:round;stroke-linejoin:round;stroke-miterlimit:10;}
	.st5{fill:#FFAA54;}
	.st6{fill:#FFB0CA;stroke:#45413C;stroke-linecap:round;stroke-linejoin:round;stroke-miterlimit:10;}
	.st7{fill:#FF87AF;stroke:#45413C;stroke-linecap:round;stroke-linejoin:round;stroke-miterlimit:10;}
	.st8{fill:#00B8F0;}
	.st9{fill:#4ACFFF;}
	.st10{fill:#FFFFFF;stroke:#45413C;stroke-linecap:round;stroke-linejoin:round;stroke-miterlimit:10;}
	.st11{fill:#45413C;stroke:#45413C;stroke-linecap:round;stroke-linejoin:round;stroke-miterlimit:10;}
	.st12{fill:#009FD9;}
	.st13{fill:none;stroke:#45413C;stroke-linecap:round;stroke-miterlimit:10;}
	.st14{fill:#FFFFFF;stroke:#45413C;stroke-linejoin:round;stroke-miterlimit:10;}
	.st15{fill:#FF6242;}
	.st16{fill:#FF866E;}
	.st17{fill:#656769;}
	.st18{fill:#87898C;}
	.st19{fill:#4AEFF7;stroke:#45413C;stroke-linecap:round;stroke-linejoin:round;stroke-miterlimit:10;}
	.st20{fill:none;stroke:#48CF3E;stroke-linecap:round;stroke-linejoin:round;stroke-miterlimit:10;}
	.st21{fill:none;stroke:#FF4064;stroke-linecap:round;stroke-linejoin:round;stroke-miterlimit:10;}
	.st22{fill:none;stroke:#FFB700;stroke-linecap:round;stroke-linejoin:round;stroke-miterlimit:10;}
	.st23{fill:none;stroke:#00AED9;stroke-linecap:round;stroke-linejoin:round;stroke-miterlimit:10;}
	.st24{fill:#FFFACF;}
	.st25{fill:#45413C;}
	.st26{fill:#FF866E;stroke:#45413C;stroke-linecap:round;stroke-linejoin:round;stroke-miterlimit:10;}
	.st27{fill:#DABFF5;stroke:#45413C;stroke-linejoin:round;stroke-miterlimit:10;}
	.st28{fill:#EDDBFF;}
	.st29{fill:none;stroke:#45413C;stroke-linejoin:round;stroke-miterlimit:10;}
	.st30{fill:#6DD627;}
	.st31{fill:#46B000;}
	.st32{fill:#C8FFA1;}
	.st33{fill:url(#XMLID_91_);}
	.st34{fill:url(#XMLID_92_);}
	.st35{fill:#F0F0F0;stroke:#45413C;stroke-linecap:round;stroke-linejoin:round;stroke-miterlimit:10;}
	.st36{fill:#EBCB00;stroke:#45413C;stroke-linecap:round;stroke-linejoin:round;stroke-miterlimit:10;}
	.st37{fill:#BDBEC0;stroke:#45413C;stroke-linecap:round;stroke-linejoin:round;stroke-miterlimit:10;}
	.st38{fill:#F0F0F0;}
	.st39{fill:#FFFFFF;}
	.st40{fill:url(#XMLID_93_);}
	.st41{fill:url(#XMLID_94_);}
	.st42{fill:#FFE500;stroke:#45413C;stroke-linecap:round;stroke-linejoin:round;stroke-miterlimit:10;}
	.st43{fill:#E04122;}
	.st44{fill:#8CFFE4;stroke:#45413C;stroke-linecap:round;stroke-linejoin:round;stroke-miterlimit:10;}
	.st45{fill:#E5FFF9;}
	.st46{fill:#E0E0E0;}
	.st47{fill:#9CEB60;}
	.st48{fill:#6DD627;stroke:#45413C;stroke-linecap:round;stroke-linejoin:round;stroke-miterlimit:10;}
	.st49{fill:#E8F4FA;}
	.st50{fill:#F0D5A8;}
	.st51{fill:#DEBB7E;}
	.st52{fill:#B89558;}
	.st53{fill:#00B8F0;stroke:#45413C;stroke-linecap:round;stroke-linejoin:round;stroke-miterlimit:10;}
	.st54{fill:#FFFCE5;}
	.st55{fill:#FF87AF;}
	.st56{fill:#4ACFFF;stroke:#45413C;stroke-linecap:round;stroke-linejoin:round;stroke-miterlimit:10;}
	.st57{fill:#E5F8FF;}
	.st58{fill:none;stroke:#45413C;stroke-miterlimit:10;}
	.st59{fill:none;stroke:#FF6242;stroke-linecap:round;stroke-linejoin:round;stroke-miterlimit:10;}
	.st60{fill:#BDBEC0;}
	.st61{fill:#B89558;stroke:#45413C;stroke-linecap:round;stroke-linejoin:round;stroke-miterlimit:10;}
	.st62{fill:#FF6242;stroke:#45413C;stroke-linecap:round;stroke-linejoin:round;stroke-miterlimit:10;}
	.st63{fill:#525252;stroke:#45413C;stroke-linecap:round;stroke-linejoin:round;stroke-miterlimit:10;}
	.st64{fill:#525252;}
	.st65{fill:#00DBA8;}
	.st66{fill:#00AD85;}
	.st67{fill:#BF8DF2;}
	.st68{fill:#DABFF5;}
	.st69{fill:#00F5BC;}
	.st70{fill:#DAEDF7;}
	.st71{fill:#C0DCEB;}
	.st72{fill:#ADC4D9;}
	.st73{fill:#ADC4D9;stroke:#45413C;stroke-linecap:round;stroke-linejoin:round;stroke-miterlimit:10;}
	.st74{fill:#00DFEB;stroke:#45413C;stroke-linecap:round;stroke-linejoin:round;stroke-miterlimit:10;}
	.st75{fill:#627B8C;stroke:#45413C;stroke-linecap:round;stroke-linejoin:round;stroke-miterlimit:10;}
	.st76{fill:#8CA4B8;}
	.st77{fill:#00DBA8;stroke:#45413C;stroke-linecap:round;stroke-linejoin:round;stroke-miterlimit:10;}
	.st78{fill:#FF8A14;}
	.st79{fill:#BF8256;}
	.st80{fill:#DEA47A;}
	.st81{fill:#915E3A;}
	.st82{fill:#FFA694;}
	.st83{fill:#E5FEFF;stroke:#45413C;stroke-linecap:round;stroke-linejoin:round;stroke-miterlimit:10;}
	.st84{fill:#803EC2;stroke:#45413C;stroke-linecap:round;stroke-linejoin:round;stroke-miterlimit:10;}
	.st85{fill:#9F5AE5;}
	.st86{fill:#803EC2;}
</style>
<g>
	<path id="XMLID_1241_" class="st78" d="M2.3,39c-1.9-1.2-2.4-3.7-1.2-5.6l7.5,4.9c-1.2,1.9-3.7,2.4-5.6,1.2L2.3,39z"/>
	<path id="XMLID_1239_" class="st73" d="M33.5,17h-9l0.6-2.4c0.2-0.7,0.7-1.1,1.4-1.1h5c0.7,0,1.3,0.5,1.4,1.1L33.5,17z"/>
	<path class="st0" d="M29,16c-8,0-14.5,6.5-14.5,14.5V41c0,1.9,1.6,3.5,3.5,3.5h22c1.9,0,3.5-1.6,3.5-3.5V30.5
		C43.5,22.5,37,16,29,16z"/>
	<path class="st2" d="M29,16c-8,0-14.5,6.5-14.5,14.5v4C14.5,26.5,21,20,29,20s14.5,6.5,14.5,14.5v-4C43.5,22.5,37,16,29,16z"/>
	<path class="st4" d="M29,16c-8,0-14.5,6.5-14.5,14.5V41c0,1.9,1.6,3.5,3.5,3.5h22c1.9,0,3.5-1.6,3.5-3.5V30.5
		C43.5,22.5,37,16,29,16z"/>
	<ellipse id="XMLID_1235_" class="st3" cx="29" cy="46.5" rx="16.5" ry="1.5"/>
	<circle id="XMLID_1231_" class="st10" cx="35.9" cy="29.1" r="4.5"/>
	<circle id="XMLID_1230_" class="st62" cx="35.9" cy="29.1" r="1.6"/>
	<circle id="XMLID_1229_" class="st10" cx="22.1" cy="29.1" r="4.1"/>
	<circle id="XMLID_1228_" class="st48" cx="22.1" cy="29.1" r="1.6"/>
	<line id="XMLID_1227_" class="st4" x1="29" y1="16" x2="29" y2="38"/>
	<line id="XMLID_1226_" class="st4" x1="35.9" y1="26.2" x2="35.9" y2="24.6"/>
	<line id="XMLID_1225_" class="st4" x1="37.9" y1="27.1" x2="39" y2="25.9"/>
	<line id="XMLID_1224_" class="st4" x1="38.7" y1="29.1" x2="40.3" y2="29.1"/>
	<line id="XMLID_1223_" class="st4" x1="37.9" y1="31.1" x2="39" y2="32.2"/>
	<line id="XMLID_1222_" class="st4" x1="35.9" y1="31.9" x2="35.9" y2="33.5"/>
	<line id="XMLID_1221_" class="st4" x1="33.9" y1="31.1" x2="32.7" y2="32.2"/>
	<line id="XMLID_1220_" class="st4" x1="33.1" y1="29.1" x2="31.4" y2="29.1"/>
	<line id="XMLID_1219_" class="st4" x1="33.9" y1="27.1" x2="32.7" y2="25.9"/>
	<polyline id="XMLID_1214_" class="st4" points="29,13.5 29,11.5 33.5,10 28,5 36,7 38,2.5 	"/>
	<circle id="XMLID_1209_" class="st62" cx="38" cy="2.5" r="2"/>
	<path id="XMLID_1208_" class="st4" d="M14.5,36.4c0,0-0.5-5.3-2.9-4.9c-2.9,0.5-2,7.7,0.4,7.3c2-0.3-1.6-6.9-4.5-6.1
		c-1.6,0.5-2.4,2.5-2.5,3.2"/>
	<path id="XMLID_1205_" class="st5" d="M1.1,33.6c0,1.5,0.8,3,2.3,4L4.1,38c1.4,0.9,3,1,4.3,0.6c0.1-0.1,0.2-0.2,0.3-0.3l-7.5-4.9
		C1.1,33.5,1.1,33.5,1.1,33.6z"/>
	<path id="XMLID_1204_" class="st4" d="M2.3,39c-1.9-1.2-2.4-3.7-1.2-5.6l7.5,4.9c-1.2,1.9-3.7,2.4-5.6,1.2L2.3,39z"/>
	<path class="st78" d="M47.5,35.5c0,2.2-1.8,4-4,4v-9c2.2,0,4,1.8,4,4V35.5z"/>
	<path class="st5" d="M43.5,30.5v2c2,0,3.7,1.5,4,3.5c0-0.2,0-0.3,0-0.5v-1C47.5,32.3,45.7,30.5,43.5,30.5z"/>
	<path class="st4" d="M47.5,35.5c0,2.2-1.8,4-4,4v-9c2.2,0,4,1.8,4,4V35.5z"/>
	<g>
		<path class="st71" d="M39.5,44.5c0,0.8-0.7,1.5-1.5,1.5H20c-0.8,0-1.5-0.7-1.5-1.5v-5c0-0.8,0.7-1.5,1.5-1.5h18
			c0.8,0,1.5,0.7,1.5,1.5V44.5z"/>
		<path class="st70" d="M38,38H20c-0.8,0-1.5,0.7-1.5,1.5v2c0-0.8,0.7-1.5,1.5-1.5h18c0.8,0,1.5,0.7,1.5,1.5v-2
			C39.5,38.7,38.8,38,38,38z"/>
		<path class="st4" d="M39.5,44.5c0,0.8-0.7,1.5-1.5,1.5H20c-0.8,0-1.5-0.7-1.5-1.5v-5c0-0.8,0.7-1.5,1.5-1.5h18
			c0.8,0,1.5,0.7,1.5,1.5V44.5z"/>
		<g>
			<path class="st25" d="M20.5,39.5c-0.3,0-0.5,0.2-0.5,0.5c0,0.3,0.2,0.5,0.5,0.5c0.3,0,0.5-0.2,0.5-0.5
				C21,39.7,20.8,39.5,20.5,39.5L20.5,39.5z"/>
		</g>
		<g>
			<path class="st25" d="M37.5,39.5c-0.3,0-0.5,0.2-0.5,0.5c0,0.3,0.2,0.5,0.5,0.5c0.3,0,0.5-0.2,0.5-0.5
				C38,39.7,37.8,39.5,37.5,39.5L37.5,39.5z"/>
		</g>
	</g>
</g>
</svg>
